# xmcd
#
# Track frame offsets: 
#        150
#        11885
#        29603
#        46743
#        58873
#        87717
#        119735
#        130785
#        162928
#        177558
#        202482
#        227670
#        233634
#        268884
#        282540
#        295807
#        331897
#
# Disc length: 4581 seconds
#
# Revision: 0
# Processed by: cddbd v1.5.2PL0 Copyright (c) Steve Scherf et al.
# Submitted via: ExactAudioCopyFreeDBPlugin 1.0
#
DISCID=1011e311
DTITLE=Ray Charles - Live In Paris - CD2
DYEAR=1961
DGENRE=Soul
TTITLE0=Alexander's Ragtime Band
TTITLE1=I Wonder
TTITLE2=I Believe To My Soul
TTITLE3=Hit The Road Jack
TTITLE4=What'd I Say
TTITLE5=Georgia On My Mind
TTITLE6=Magie
TTITLE7=Come Rain Or Come Shine
TTITLE8=Hallelujah, I Love Her So
TTITLE9=Careless Love
TTITLE10=I Got A Woman
TTITLE11=Doodlin' Warm Up
TTITLE12=Doodlin'
TTITLE13=One Mint Julep
TTITLE14=Let The Good Times Roll
TTITLE15=Untitled Blues
TTITLE16=Alexander's Ragtime Band
EXTD=
EXTT0=
EXTT1=
EXTT2=
EXTT3=
EXTT4=
EXTT5=
EXTT6=
EXTT7=
EXTT8=
EXTT9=
EXTT10=
EXTT11=
EXTT12=
EXTT13=
EXTT14=
EXTT15=
EXTT16=
PLAYORDER=
